<svg width="92" height="93" viewBox="0 0 92 93" fill="none" xmlns="http://www.w3.org/2000/svg">
<rect x="0.222198" width="91.1917" height="93" rx="5" fill="#13ACF3"/>
<path d="M44.8292 42.25C54.8799 42.25 62.9695 37.25 62.9695 31C62.9695 24.75 54.8799 20 44.8292 20C34.5333 20 26.6889 25 26.6889 31.25C26.6889 37.5 34.5333 42.25 44.8292 42.25ZM44.8292 25C52.4285 25 58.0667 28.25 58.0667 31.25C58.0667 34.25 52.4285 37.5 44.8292 37.5C37.2299 37.25 31.5917 34 31.5917 31.25C31.5917 28.5 37.2299 25 44.8292 25Z" fill="white"/>
<path d="M60.7632 41.7498C59.5375 40.9998 58.0667 41.4998 57.3313 42.4998C56.1056 44.9998 51.2028 47.2498 44.8292 47.2498C38.2104 47.2498 33.5528 44.9998 32.0819 42.4998C31.3465 41.4998 29.8757 40.9998 28.65 41.7498C27.4243 42.4998 27.1792 43.9998 27.9146 45.2498C30.6111 49.4998 37.2299 52.2498 44.8292 52.2498C52.4285 52.2498 59.0472 49.4998 61.7438 45.2498C62.234 43.9998 61.9889 42.4998 60.7632 41.7498Z" fill="white"/>
<path d="M60.7632 53C59.5375 52.25 58.0667 52.75 57.3313 53.75C55.8604 56 51.2028 58.5 44.5841 58.5C38.2104 58.5 33.3077 56.25 31.8368 53.75C31.1014 52.5 29.6306 52.25 28.4049 53C27.1792 53.75 26.9341 55.25 27.6695 56.5C30.366 60.75 36.9847 63.5 44.5841 63.5C52.1834 63.5 58.8021 60.75 61.4986 56.5C62.2341 55.25 61.9889 53.75 60.7632 53Z" fill="white"/>
<path d="M60.7632 64.5C59.5375 63.75 58.0667 64.25 57.3313 65.25C56.1056 67.75 51.2028 70 44.8292 70C38.4556 70 33.5528 67.75 32.0819 65.25C31.3465 64 29.8757 63.75 28.65 64.5C27.4243 65.25 27.1792 66.75 27.9146 68C30.366 72.25 36.9847 75 44.8292 75C52.4285 75 59.0472 72.25 61.7438 68C62.234 66.75 61.9889 65.25 60.7632 64.5Z" fill="white"/>
</svg>
