<svg width="36" height="36" viewBox="0 0 36 36" fill="none" xmlns="http://www.w3.org/2000/svg">
<path d="M32.4832 1H3.51016C2.12227 1 1 2.0957 1 3.45039V32.543C1 33.8977 2.12227 35 3.51016 35H32.4832C33.8711 35 35 33.8977 35 32.5496V3.45039C35 2.0957 33.8711 1 32.4832 1ZM11.0871 29.973H6.04023V13.7434H11.0871V29.973ZM8.56367 11.532C6.94336 11.532 5.63516 10.2238 5.63516 8.61016C5.63516 6.99648 6.94336 5.68828 8.56367 5.68828C10.1773 5.68828 11.4855 6.99648 11.4855 8.61016C11.4855 10.2172 10.1773 11.532 8.56367 11.532ZM29.973 29.973H24.9328V22.084C24.9328 20.2047 24.8996 17.7809 22.3098 17.7809C19.6867 17.7809 19.2883 19.8328 19.2883 21.9512V29.973H14.2547V13.7434H19.0891V15.9613H19.1555C19.8262 14.6863 21.473 13.3383 23.9234 13.3383C29.0301 13.3383 29.973 16.6984 29.973 21.068V29.973Z" fill="#CDE5F2"/>
</svg>
