<?xml version="1.0" encoding="UTF-8"?><svg id="a" xmlns="http://www.w3.org/2000/svg" viewBox="0 0 16 16"><defs><style>.b{fill:#061764;}</style></defs><path class="b" d="M9.02,14.94h-2.06c-2.6,0-4.71-2.11-4.71-4.71v-1.71h1.61v1.71c0,1.71,1.39,3.1,3.1,3.1h2.06c1.71,0,3.1-1.39,3.1-3.1V5h1.61v5.24c0,2.6-2.11,4.71-4.71,4.71Z"/><path class="b" d="M8.04,9.94h0c-.64,0-1.72,0-2.19,0v-1.42c.44,0,1.33,0,1.98,0V1.65h1.36v7.14c0,.31-.12,.6-.34,.81-.22,.22-.5,.33-.81,.33Z"/><rect class="b" x="12.14" y="1.67" width="1.61" height="1.61" rx=".51" ry=".51"/><path class="b" d="M5.51,2.77c0,.23-.14,.43-.35,.51l-2.75,1.05h0v-.97l1.62-.59-1.62-.61v-.95l2.76,1.05c.21,.08,.35,.28,.35,.51Z"/></svg>