<svg width="36" height="36" viewBox="0 0 36 36" fill="none" xmlns="http://www.w3.org/2000/svg">
<g clip-path="url(#clip0_61_156)">
<path fill-rule="evenodd" clip-rule="evenodd" d="M18.0004 0.75C13.7272 0.752217 9.5942 2.26569 6.3403 5.01978C3.08641 7.77388 0.923855 11.589 0.239317 15.783C-0.445221 19.977 0.39289 24.2763 2.60381 27.9123C4.81472 31.5482 8.25426 34.2836 12.3074 35.6295C13.2016 35.7954 13.5384 35.2412 13.5384 34.77C13.5384 34.2988 13.5205 32.9325 13.5145 31.4388C8.50709 32.5206 7.44898 29.3257 7.44898 29.3257C6.63229 27.2512 5.45196 26.7058 5.45196 26.7058C3.81857 25.5974 5.57417 25.6182 5.57417 25.6182C7.38341 25.7456 8.33423 27.4645 8.33423 27.4645C9.93781 30.2 12.5458 29.4087 13.5712 28.9464C13.7321 27.7876 14.2001 26.9992 14.7157 26.5517C10.7157 26.1013 6.51306 24.5661 6.51306 17.7081C6.48827 15.9296 7.15203 14.2096 8.36702 12.904C8.18222 12.4535 7.56522 10.6339 8.54286 8.16215C8.54286 8.16215 10.0541 7.68203 13.4937 9.99666C16.444 9.19444 19.5568 9.19444 22.5071 9.99666C25.9438 7.68203 27.452 8.16215 27.452 8.16215C28.4326 10.6279 27.8156 12.4476 27.6308 12.904C28.8496 14.2098 29.5148 15.9328 29.4877 17.7141C29.4877 24.5868 25.2761 26.1013 21.2701 26.5428C21.914 27.1 22.4892 28.1877 22.4892 29.8592C22.4892 32.2538 22.4684 34.1802 22.4684 34.77C22.4684 35.2471 22.7932 35.8043 23.7053 35.6295C27.7589 34.2835 31.1988 31.5476 33.4097 27.911C35.6205 24.2744 36.4582 19.9744 35.7729 15.7801C35.0876 11.5857 32.924 7.77053 29.669 5.01691C26.414 2.26328 22.28 0.750812 18.0063 0.75H18.0004Z" fill="#CDE5F2"/>
<path d="M12.0417 29.963C12.0417 30.1082 11.8748 30.2327 11.6602 30.2357C11.4456 30.2386 11.2698 30.1201 11.2698 29.9749C11.2698 29.8296 11.4367 29.7052 11.6513 29.7022C11.8659 29.6992 12.0417 29.8148 12.0417 29.963Z" fill="#CDE5F2"/>
<path d="M13.4128 29.7349C13.4397 29.8801 13.2906 30.0312 13.076 30.0668C12.8614 30.1024 12.6736 30.0164 12.6468 29.8742C12.62 29.7319 12.775 29.5778 12.9836 29.5393C13.1923 29.5007 13.386 29.5897 13.4128 29.7349Z" fill="#CDE5F2"/>
<path d="M10.5693 29.8621C10.5246 30.0014 10.3219 30.0636 10.1192 30.0043C9.9165 29.9451 9.78237 29.7791 9.82112 29.6368C9.85987 29.4946 10.0655 29.4294 10.2712 29.4946C10.4769 29.5598 10.608 29.7169 10.5693 29.8621Z" fill="#CDE5F2"/>
<path d="M9.21905 29.2814C9.12069 29.391 8.92099 29.3614 8.75706 29.2132C8.59312 29.065 8.55437 28.8635 8.65273 28.7568C8.75109 28.6501 8.95079 28.6797 9.12069 28.825C9.29058 28.9702 9.32337 29.1747 9.21905 29.2814Z" fill="#CDE5F2"/>
<path d="M8.25637 28.2857C8.14608 28.3627 7.95829 28.2857 7.85397 28.1316C7.82513 28.1039 7.80219 28.0708 7.78652 28.0341C7.77084 27.9974 7.76276 27.958 7.76276 27.9182C7.76276 27.8783 7.77084 27.8389 7.78652 27.8022C7.80219 27.7656 7.82513 27.7324 7.85397 27.7048C7.96426 27.6307 8.15205 27.7048 8.25637 27.8559C8.36069 28.0071 8.36367 28.2086 8.25637 28.2857Z" fill="#CDE5F2"/>
<path d="M7.54697 27.2572C7.48524 27.2881 7.41462 27.2968 7.3472 27.2816C7.27977 27.2665 7.21974 27.2285 7.17737 27.1742C7.06113 27.0497 7.03727 26.8779 7.12669 26.8008C7.21611 26.7237 7.37707 26.7593 7.49332 26.8838C7.60956 27.0083 7.63638 27.1801 7.54697 27.2572Z" fill="#CDE5F2"/>
<path d="M6.81665 26.4479C6.77791 26.5369 6.63484 26.5635 6.51859 26.5013C6.40235 26.4391 6.31592 26.3235 6.35764 26.2316C6.39937 26.1397 6.53946 26.116 6.65571 26.1783C6.77195 26.2405 6.86136 26.359 6.81665 26.4479Z" fill="#CDE5F2"/>
</g>
<defs>
<clipPath id="clip0_61_156">
<rect width="36" height="36" fill="white"/>
</clipPath>
</defs>
</svg>
