<svg width="92" height="93" viewBox="0 0 92 93" fill="none" xmlns="http://www.w3.org/2000/svg">
<rect x="0.241638" width="91.1917" height="93" rx="5" fill="#13ACF3"/>
<path d="M61.2031 23H29.687C23.5315 23 18.3609 28.25 18.3609 34.5V59C18.3609 65.25 23.5315 70.5 29.687 70.5H60.9569C67.3586 70.5 72.283 65.25 72.283 59V34.5C72.5292 28.25 67.3586 23 61.2031 23ZM67.6048 59C67.6048 62.5 64.6502 65.5 61.2031 65.5H29.687C26.2399 65.5 23.2853 62.5 23.2853 59V39.25H63.1728C64.6502 39.25 65.635 38.25 65.635 36.75C65.635 35.25 64.4039 34.25 63.1728 34.25H23.2853C23.5315 30.75 26.2399 28 29.687 28H60.9569C64.6502 28 67.6048 31 67.6048 34.5V59Z" fill="white"/>
<path d="M42.0315 43.8438C41.3181 42.8921 39.6536 42.6541 38.7025 43.6059L31.3312 50.0304C30.8556 50.5063 30.6178 51.2201 30.6178 51.934C30.6178 52.6478 30.8556 53.3616 31.3312 53.8375L38.7025 60.0241C39.1781 60.5 39.6536 60.5 40.367 60.5C41.0804 60.5 41.7937 60.2621 42.2693 59.7862C43.2204 58.8344 42.9826 57.4067 42.0315 56.4549L36.8002 51.934L42.0315 47.413C42.9826 46.2233 42.9826 44.7956 42.0315 43.8438Z" fill="white"/>
<path d="M51.712 43.6143C50.7609 42.6494 49.0964 42.8906 48.383 43.8555C47.4319 44.8204 47.6697 46.2677 48.6208 47.2326L53.8521 51.8159L48.6208 56.3992C47.6697 57.3641 47.4319 58.8114 48.383 59.7763C48.8586 60.2588 49.5719 60.5 50.2853 60.5C50.7609 60.5 51.4742 60.2588 51.9498 60.0175L59.3211 53.5045C59.7967 53.022 60.0345 52.2984 60.0345 51.5747C60.0345 50.851 59.7967 50.1273 59.3211 49.6449L51.712 43.6143Z" fill="white"/>
</svg>
