<svg width="92" height="93" viewBox="0 0 92 93" fill="none" xmlns="http://www.w3.org/2000/svg">
<rect x="0.241676" width="91.1917" height="93" rx="5" fill="#13ACF3"/>
<path d="M65.4486 43.5H64.2229V38.5C64.2229 33 59.8104 28.5 54.4174 28.5H49.5146V27.5C49.5146 23 46.0826 19.5 41.6701 19.5C37.2576 19.5 33.8257 23 33.8257 27.5V28.75H29.1681C23.775 28.75 19.3625 33.25 19.3625 38.75V46.25C19.3625 47.75 20.3431 48.75 21.8139 48.75H25.491C26.2264 48.75 26.9618 49 27.6972 49.75C28.4326 50.5 28.6778 51.25 28.6778 52.25C28.6778 53.75 27.207 55 25.491 55H21.8139C20.3431 55 19.3625 56 19.3625 57.5V65C19.3625 70.5 23.775 75 29.1681 75H36.5222C37.9931 75 38.9736 74 38.9736 72.5V68.75C38.9736 68 39.2188 67.25 39.9542 66.5C40.6896 65.75 41.425 65.5 42.4056 65.5C43.8764 65.5 45.1021 67 45.1021 68.75V72C45.1021 73.5 46.0826 74.5 47.5535 74.5H54.9076C60.3007 74.5 64.7132 70 64.7132 64.5V59.5H65.9389C70.3514 59.5 73.7833 56 73.7833 51.5C73.2931 47.25 69.8611 43.5 65.4486 43.5ZM65.4486 54.75H61.7715C60.3007 54.75 59.3201 55.75 59.3201 57.25V64.75C59.3201 67.5 57.1139 69.75 54.4174 69.75H49.5146V68.75C49.5146 64.25 46.3278 60.75 42.1604 60.5C39.9542 60.25 37.5028 61.25 36.032 62.75C34.5611 64.25 33.8257 66.25 33.8257 68.5V69.5H29.1681C26.4715 69.5 24.2653 67.25 24.2653 64.5V59.5H25.2458C29.6583 59.5 33.0903 56.25 33.3354 52C33.5806 49.75 32.6 47.5 31.1292 45.75C29.4132 44.5 27.4521 43.5 25.491 43.5H24.2653V38.5C24.2653 35.75 26.4715 33.5 29.1681 33.5H36.5222C37.9931 33.5 38.9736 32.5 38.9736 31V27.5C38.7285 25.75 40.1993 24.5 41.6701 24.5C43.3861 24.5 44.6118 25.75 44.6118 27.5V31.25C44.6118 32.75 45.5924 33.75 47.0632 33.75H54.4174C57.1139 33.75 59.3201 36 59.3201 38.75V46.25C59.3201 47.75 60.3007 48.75 61.7715 48.75H65.4486C67.1646 48.75 68.3903 50 68.3903 51.75C68.3903 53.5 67.1646 54.75 65.4486 54.75Z" fill="white"/>
</svg>
