<svg width="92" height="93" viewBox="0 0 92 93" fill="none" xmlns="http://www.w3.org/2000/svg">
<rect x="0.241661" width="91.1917" height="93" rx="5" fill="#13ACF3"/>
<path d="M70.9595 34.3403C70.7115 33.5825 69.9675 32.8248 69.2235 32.8248C68.4795 32.5722 67.4874 32.8248 66.9914 33.5825L59.0552 41.665C58.0632 42.6753 56.5751 43.1805 55.0871 43.433C53.599 43.433 52.359 42.9279 51.1189 41.9176C50.1269 40.9073 49.3829 39.3918 49.3829 37.8763C49.3829 36.1083 50.1269 34.3403 51.3669 33.0774L58.8072 25.5001C59.3032 24.9949 59.5512 23.9846 59.5512 23.2269C59.5512 22.4691 58.5592 21.2063 57.8151 20.9537C48.3909 17.4176 37.9745 20.4485 31.7743 28.7836C27.8062 34.0877 26.5662 40.9073 28.0542 47.4743L20.366 55.3041C19.126 56.567 18.3819 58.5877 18.3819 60.3557C18.3819 62.1237 19.126 64.1443 20.366 65.4072L26.8142 72.4794C28.0542 73.7423 30.0383 74.5 31.7743 74.5C33.5104 74.5 35.4945 73.7423 36.7345 72.4794L44.4227 64.6495C51.863 66.4175 59.7992 64.1443 65.5034 58.5877C71.9516 52.2732 73.9356 42.6753 70.9595 34.3403ZM62.2793 55.0516C57.8151 59.598 51.1189 61.366 44.9187 59.598C43.9267 59.3454 43.1827 59.598 42.4387 60.3557L33.7584 69.1959C33.0144 69.9536 31.5263 69.9536 30.5343 69.1959L23.8381 62.3763C23.3421 61.6186 23.0941 61.1134 23.0941 60.6083C23.0941 60.1031 23.3421 59.3454 23.8381 59.0928L32.5184 50.2526C33.2624 49.4949 33.5104 48.7372 33.0144 47.7268C31.5263 42.1702 32.5184 36.1083 35.7425 31.8145C39.2146 27.0155 44.4227 24.4898 49.8789 24.4898C50.6229 24.4898 51.3669 24.4898 52.111 24.7423L47.6468 29.2887C45.4148 31.3093 44.1747 34.5928 44.1747 37.6238C44.1747 40.6547 45.4148 43.1805 47.3988 45.2011C49.3829 46.9691 51.863 47.9794 54.591 47.9794C54.591 47.9794 54.591 47.9794 54.8391 47.9794C57.5671 47.9794 60.2952 46.9691 62.2793 44.6959L66.9914 39.897C67.9835 45.4537 65.9994 51.0103 62.2793 55.0516Z" fill="white"/>
</svg>
